# xmcd CD database file
#
# Track frame offsets:
#	150
#	38747
#	76422
#	119030
#	167105
#	176260
#	226550
#	258732
#
# Disc length: 3732 seconds
#
# Revision: 0
# Processed by: cddbd v1.5.2PL0 Copyright (c) Steve Scherf et al.
# Submitted via: CDex 1.70beta2
#
DISCID=5e0e9208
DTITLE=Takao Ogawa - BRICK RED
DYEAR=2000
DGENRE=Jazz
TTITLE0=What's Up Bird?
TTITLE1=Isfahan
TTITLE2=Spiritual Emergence
TTITLE3=You've Changed
TTITLE4=An Odd Number
TTITLE5=A Night In Tunisia
TTITLE6=Embraceable You
TTITLE7=Wee
EXTD=YEAR: 2000
EXTT0=
EXTT1=
EXTT2=
EXTT3=
EXTT4=
EXTT5=
EXTT6=
EXTT7=
PLAYORDER=
